<svg width="1080" height="1920" viewBox="0 0 1080 1920" fill="none" xmlns="http://www.w3.org/2000/svg">
<rect width="1080" height="1920" fill="black"/>
<path d="M165.595 606V536.182H207.459V543.682H174.05V567.273H204.322V574.773H174.05V606H165.595ZM238.277 607.091C233.55 607.091 229.402 605.966 225.834 603.716C222.288 601.466 219.516 598.318 217.516 594.273C215.538 590.227 214.55 585.5 214.55 580.091C214.55 574.636 215.538 569.875 217.516 565.807C219.516 561.739 222.288 558.58 225.834 556.33C229.402 554.08 233.55 552.955 238.277 552.955C243.004 552.955 247.141 554.08 250.686 556.33C254.254 558.58 257.027 561.739 259.004 565.807C261.004 569.875 262.004 574.636 262.004 580.091C262.004 585.5 261.004 590.227 259.004 594.273C257.027 598.318 254.254 601.466 250.686 603.716C247.141 605.966 243.004 607.091 238.277 607.091ZM238.277 599.864C241.868 599.864 244.822 598.943 247.141 597.102C249.459 595.261 251.175 592.841 252.288 589.841C253.402 586.841 253.959 583.591 253.959 580.091C253.959 576.591 253.402 573.33 252.288 570.307C251.175 567.284 249.459 564.841 247.141 562.977C244.822 561.114 241.868 560.182 238.277 560.182C234.686 560.182 231.732 561.114 229.413 562.977C227.095 564.841 225.379 567.284 224.266 570.307C223.152 573.33 222.595 576.591 222.595 580.091C222.595 583.591 223.152 586.841 224.266 589.841C225.379 592.841 227.095 595.261 229.413 597.102C231.732 598.943 234.686 599.864 238.277 599.864ZM274.286 606V553.636H282.058V561.545H282.604C283.558 558.955 285.286 556.852 287.786 555.239C290.286 553.625 293.104 552.818 296.24 552.818C296.831 552.818 297.57 552.83 298.456 552.852C299.342 552.875 300.013 552.909 300.467 552.955V561.136C300.195 561.068 299.57 560.966 298.592 560.83C297.638 560.67 296.626 560.591 295.558 560.591C293.013 560.591 290.74 561.125 288.74 562.193C286.763 563.239 285.195 564.693 284.036 566.557C282.899 568.398 282.331 570.5 282.331 572.864V606H274.286ZM345.05 574.5V606H337.004V553.636H344.777V561.818H345.459C346.686 559.159 348.55 557.023 351.05 555.409C353.55 553.773 356.777 552.955 360.732 552.955C364.277 552.955 367.379 553.682 370.038 555.136C372.697 556.568 374.766 558.75 376.243 561.682C377.72 564.591 378.459 568.273 378.459 572.727V606H370.413V573.273C370.413 569.159 369.345 565.955 367.209 563.659C365.072 561.341 362.141 560.182 358.413 560.182C355.845 560.182 353.55 560.739 351.527 561.852C349.527 562.966 347.947 564.591 346.788 566.727C345.629 568.864 345.05 571.455 345.05 574.5ZM414.433 607.091C409.706 607.091 405.558 605.966 401.99 603.716C398.445 601.466 395.672 598.318 393.672 594.273C391.695 590.227 390.706 585.5 390.706 580.091C390.706 574.636 391.695 569.875 393.672 565.807C395.672 561.739 398.445 558.58 401.99 556.33C405.558 554.08 409.706 552.955 414.433 552.955C419.161 552.955 423.297 554.08 426.842 556.33C430.411 558.58 433.183 561.739 435.161 565.807C437.161 569.875 438.161 574.636 438.161 580.091C438.161 585.5 437.161 590.227 435.161 594.273C433.183 598.318 430.411 601.466 426.842 603.716C423.297 605.966 419.161 607.091 414.433 607.091ZM414.433 599.864C418.024 599.864 420.979 598.943 423.297 597.102C425.615 595.261 427.331 592.841 428.445 589.841C429.558 586.841 430.115 583.591 430.115 580.091C430.115 576.591 429.558 573.33 428.445 570.307C427.331 567.284 425.615 564.841 423.297 562.977C420.979 561.114 418.024 560.182 414.433 560.182C410.842 560.182 407.888 561.114 405.57 562.977C403.251 564.841 401.536 567.284 400.422 570.307C399.308 573.33 398.751 576.591 398.751 580.091C398.751 583.591 399.308 586.841 400.422 589.841C401.536 592.841 403.251 595.261 405.57 597.102C407.888 598.943 410.842 599.864 414.433 599.864ZM460.524 606L444.57 553.636H453.024L464.342 593.727H464.888L476.07 553.636H484.661L495.706 593.591H496.251L507.57 553.636H516.024L500.07 606H492.161L480.706 565.773H479.888L468.433 606H460.524ZM531.536 596.455L530.99 600.136C530.604 602.727 530.013 605.5 529.217 608.455C528.445 611.409 527.638 614.193 526.797 616.807C525.956 619.42 525.263 621.5 524.717 623.045H518.581C518.876 621.591 519.263 619.67 519.74 617.284C520.217 614.898 520.695 612.227 521.172 609.273C521.672 606.341 522.081 603.341 522.399 600.273L522.808 596.455H531.536ZM596.214 553.636V560.455H569.078V553.636H596.214ZM576.987 541.091H585.033V591C585.033 593.273 585.362 594.977 586.021 596.114C586.703 597.227 587.567 597.977 588.612 598.364C589.68 598.727 590.805 598.909 591.987 598.909C592.874 598.909 593.601 598.864 594.169 598.773C594.737 598.659 595.192 598.568 595.533 598.5L597.169 605.727C596.624 605.932 595.862 606.136 594.885 606.341C593.908 606.568 592.669 606.682 591.169 606.682C588.896 606.682 586.669 606.193 584.487 605.216C582.328 604.239 580.533 602.75 579.101 600.75C577.692 598.75 576.987 596.227 576.987 593.182V541.091ZM617.487 574.5V606H609.442V536.182H617.487V561.818H618.169C619.396 559.114 621.237 556.966 623.692 555.375C626.169 553.761 629.464 552.955 633.578 552.955C637.146 552.955 640.271 553.67 642.953 555.102C645.635 556.511 647.714 558.682 649.192 561.614C650.692 564.523 651.442 568.227 651.442 572.727V606H643.396V573.273C643.396 569.114 642.317 565.898 640.158 563.625C638.021 561.33 635.055 560.182 631.26 560.182C628.624 560.182 626.26 560.739 624.169 561.852C622.101 562.966 620.464 564.591 619.26 566.727C618.078 568.864 617.487 571.455 617.487 574.5ZM666.161 606V553.636H674.206V606H666.161ZM670.251 544.909C668.683 544.909 667.331 544.375 666.195 543.307C665.081 542.239 664.524 540.955 664.524 539.455C664.524 537.955 665.081 536.67 666.195 535.602C667.331 534.534 668.683 534 670.251 534C671.82 534 673.161 534.534 674.274 535.602C675.411 536.67 675.979 537.955 675.979 539.455C675.979 540.955 675.411 542.239 674.274 543.307C673.161 544.375 671.82 544.909 670.251 544.909ZM726.033 565.364L718.805 567.409C718.351 566.205 717.68 565.034 716.794 563.898C715.93 562.739 714.749 561.784 713.249 561.034C711.749 560.284 709.828 559.909 707.487 559.909C704.283 559.909 701.612 560.648 699.476 562.125C697.362 563.58 696.305 565.432 696.305 567.682C696.305 569.682 697.033 571.261 698.487 572.42C699.942 573.58 702.214 574.545 705.305 575.318L713.078 577.227C717.76 578.364 721.249 580.102 723.544 582.443C725.839 584.761 726.987 587.75 726.987 591.409C726.987 594.409 726.124 597.091 724.396 599.455C722.692 601.818 720.305 603.682 717.237 605.045C714.169 606.409 710.601 607.091 706.533 607.091C701.192 607.091 696.771 605.932 693.271 603.614C689.771 601.295 687.555 597.909 686.624 593.455L694.26 591.545C694.987 594.364 696.362 596.477 698.385 597.886C700.43 599.295 703.101 600 706.396 600C710.146 600 713.124 599.205 715.328 597.614C717.555 596 718.669 594.068 718.669 591.818C718.669 590 718.033 588.477 716.76 587.25C715.487 586 713.533 585.068 710.896 584.455L702.169 582.409C697.374 581.273 693.851 579.511 691.601 577.125C689.374 574.716 688.26 571.705 688.26 568.091C688.26 565.136 689.089 562.523 690.749 560.25C692.43 557.977 694.714 556.193 697.601 554.898C700.51 553.602 703.805 552.955 707.487 552.955C712.669 552.955 716.737 554.091 719.692 556.364C722.669 558.636 724.783 561.636 726.033 565.364ZM803.189 565.364L795.962 567.409C795.507 566.205 794.837 565.034 793.95 563.898C793.087 562.739 791.905 561.784 790.405 561.034C788.905 560.284 786.984 559.909 784.643 559.909C781.439 559.909 778.768 560.648 776.632 562.125C774.518 563.58 773.462 565.432 773.462 567.682C773.462 569.682 774.189 571.261 775.643 572.42C777.098 573.58 779.371 574.545 782.462 575.318L790.234 577.227C794.916 578.364 798.405 580.102 800.7 582.443C802.996 584.761 804.143 587.75 804.143 591.409C804.143 594.409 803.28 597.091 801.553 599.455C799.848 601.818 797.462 603.682 794.393 605.045C791.325 606.409 787.757 607.091 783.689 607.091C778.348 607.091 773.928 605.932 770.428 603.614C766.928 601.295 764.712 597.909 763.78 593.455L771.416 591.545C772.143 594.364 773.518 596.477 775.541 597.886C777.587 599.295 780.257 600 783.553 600C787.303 600 790.28 599.205 792.484 597.614C794.712 596 795.825 594.068 795.825 591.818C795.825 590 795.189 588.477 793.916 587.25C792.643 586 790.689 585.068 788.053 584.455L779.325 582.409C774.53 581.273 771.007 579.511 768.757 577.125C766.53 574.716 765.416 571.705 765.416 568.091C765.416 565.136 766.246 562.523 767.905 560.25C769.587 557.977 771.871 556.193 774.757 554.898C777.666 553.602 780.962 552.955 784.643 552.955C789.825 552.955 793.893 554.091 796.848 556.364C799.825 558.636 801.939 561.636 803.189 565.364ZM816.254 606V553.636H824.3V606H816.254ZM820.345 544.909C818.777 544.909 817.425 544.375 816.288 543.307C815.175 542.239 814.618 540.955 814.618 539.455C814.618 537.955 815.175 536.67 816.288 535.602C817.425 534.534 818.777 534 820.345 534C821.913 534 823.254 534.534 824.368 535.602C825.504 536.67 826.072 537.955 826.072 539.455C826.072 540.955 825.504 542.239 824.368 543.307C823.254 544.375 821.913 544.909 820.345 544.909ZM861.808 553.636V560.455H834.672V553.636H861.808ZM842.581 541.091H850.626V591C850.626 593.273 850.956 594.977 851.615 596.114C852.297 597.227 853.161 597.977 854.206 598.364C855.274 598.727 856.399 598.909 857.581 598.909C858.467 598.909 859.195 598.864 859.763 598.773C860.331 598.659 860.786 598.568 861.126 598.5L862.763 605.727C862.217 605.932 861.456 606.136 860.479 606.341C859.501 606.568 858.263 606.682 856.763 606.682C854.49 606.682 852.263 606.193 850.081 605.216C847.922 604.239 846.126 602.75 844.695 600.75C843.286 598.75 842.581 596.227 842.581 593.182V541.091ZM895.303 607.091C890.257 607.091 885.905 605.977 882.246 603.75C878.609 601.5 875.803 598.364 873.825 594.341C871.871 590.295 870.893 585.591 870.893 580.227C870.893 574.864 871.871 570.136 873.825 566.045C875.803 561.932 878.553 558.727 882.075 556.432C885.621 554.114 889.757 552.955 894.484 552.955C897.212 552.955 899.905 553.409 902.564 554.318C905.223 555.227 907.643 556.705 909.825 558.75C912.007 560.773 913.746 563.455 915.041 566.795C916.337 570.136 916.984 574.25 916.984 579.136V582.545H876.621V575.591H908.803C908.803 572.636 908.212 570 907.03 567.682C905.871 565.364 904.212 563.534 902.053 562.193C899.916 560.852 897.393 560.182 894.484 560.182C891.28 560.182 888.507 560.977 886.166 562.568C883.848 564.136 882.064 566.182 880.814 568.705C879.564 571.227 878.939 573.932 878.939 576.818V581.455C878.939 585.409 879.621 588.761 880.984 591.511C882.371 594.239 884.291 596.318 886.746 597.75C889.2 599.159 892.053 599.864 895.303 599.864C897.416 599.864 899.325 599.568 901.03 598.977C902.757 598.364 904.246 597.455 905.496 596.25C906.746 595.023 907.712 593.5 908.393 591.682L916.166 593.864C915.348 596.5 913.973 598.818 912.041 600.818C910.109 602.795 907.723 604.341 904.882 605.455C902.041 606.545 898.848 607.091 895.303 607.091ZM253.793 723.091C249.065 723.091 244.918 721.966 241.349 719.716C237.804 717.466 235.031 714.318 233.031 710.273C231.054 706.227 230.065 701.5 230.065 696.091C230.065 690.636 231.054 685.875 233.031 681.807C235.031 677.739 237.804 674.58 241.349 672.33C244.918 670.08 249.065 668.955 253.793 668.955C258.52 668.955 262.656 670.08 266.202 672.33C269.77 674.58 272.543 677.739 274.52 681.807C276.52 685.875 277.52 690.636 277.52 696.091C277.52 701.5 276.52 706.227 274.52 710.273C272.543 714.318 269.77 717.466 266.202 719.716C262.656 721.966 258.52 723.091 253.793 723.091ZM253.793 715.864C257.384 715.864 260.338 714.943 262.656 713.102C264.974 711.261 266.69 708.841 267.804 705.841C268.918 702.841 269.474 699.591 269.474 696.091C269.474 692.591 268.918 689.33 267.804 686.307C266.69 683.284 264.974 680.841 262.656 678.977C260.338 677.114 257.384 676.182 253.793 676.182C250.202 676.182 247.247 677.114 244.929 678.977C242.611 680.841 240.895 683.284 239.781 686.307C238.668 689.33 238.111 692.591 238.111 696.091C238.111 699.591 238.668 702.841 239.781 705.841C240.895 708.841 242.611 711.261 244.929 713.102C247.247 714.943 250.202 715.864 253.793 715.864ZM297.847 690.5V722H289.801V669.636H297.574V677.818H298.256C299.483 675.159 301.347 673.023 303.847 671.409C306.347 669.773 309.574 668.955 313.528 668.955C317.074 668.955 320.176 669.682 322.835 671.136C325.494 672.568 327.563 674.75 329.04 677.682C330.517 680.591 331.256 684.273 331.256 688.727V722H323.21V689.273C323.21 685.159 322.142 681.955 320.006 679.659C317.869 677.341 314.938 676.182 311.21 676.182C308.642 676.182 306.347 676.739 304.324 677.852C302.324 678.966 300.744 680.591 299.585 682.727C298.426 684.864 297.847 687.455 297.847 690.5ZM354.003 652.182V722H345.957V652.182H354.003ZM373.92 741.636C372.557 741.636 371.341 741.523 370.273 741.295C369.205 741.091 368.466 740.886 368.057 740.682L370.102 733.591C372.057 734.091 373.784 734.273 375.284 734.136C376.784 734 378.114 733.33 379.273 732.125C380.455 730.943 381.534 729.023 382.511 726.364L384.011 722.273L364.648 669.636H373.375L387.83 711.364H388.375L402.83 669.636H411.557L389.33 729.636C388.33 732.341 387.091 734.58 385.614 736.352C384.136 738.148 382.42 739.477 380.466 740.341C378.534 741.205 376.352 741.636 373.92 741.636ZM461.04 722L445.085 669.636H453.54L464.858 709.727H465.403L476.585 669.636H485.176L496.222 709.591H496.767L508.085 669.636H516.54L500.585 722H492.676L481.222 681.773H480.403L468.949 722H461.04ZM546.668 723.091C541.94 723.091 537.793 721.966 534.224 719.716C530.679 717.466 527.906 714.318 525.906 710.273C523.929 706.227 522.94 701.5 522.94 696.091C522.94 690.636 523.929 685.875 525.906 681.807C527.906 677.739 530.679 674.58 534.224 672.33C537.793 670.08 541.94 668.955 546.668 668.955C551.395 668.955 555.531 670.08 559.077 672.33C562.645 674.58 565.418 677.739 567.395 681.807C569.395 685.875 570.395 690.636 570.395 696.091C570.395 701.5 569.395 706.227 567.395 710.273C565.418 714.318 562.645 717.466 559.077 719.716C555.531 721.966 551.395 723.091 546.668 723.091ZM546.668 715.864C550.259 715.864 553.213 714.943 555.531 713.102C557.849 711.261 559.565 708.841 560.679 705.841C561.793 702.841 562.349 699.591 562.349 696.091C562.349 692.591 561.793 689.33 560.679 686.307C559.565 683.284 557.849 680.841 555.531 678.977C553.213 677.114 550.259 676.182 546.668 676.182C543.077 676.182 540.122 677.114 537.804 678.977C535.486 680.841 533.77 683.284 532.656 686.307C531.543 689.33 530.986 692.591 530.986 696.091C530.986 699.591 531.543 702.841 532.656 705.841C533.77 708.841 535.486 711.261 537.804 713.102C540.122 714.943 543.077 715.864 546.668 715.864ZM582.676 722V669.636H590.449V677.545H590.994C591.949 674.955 593.676 672.852 596.176 671.239C598.676 669.625 601.494 668.818 604.631 668.818C605.222 668.818 605.96 668.83 606.847 668.852C607.733 668.875 608.403 668.909 608.858 668.955V677.136C608.585 677.068 607.96 676.966 606.983 676.83C606.028 676.67 605.017 676.591 603.949 676.591C601.403 676.591 599.131 677.125 597.131 678.193C595.153 679.239 593.585 680.693 592.426 682.557C591.29 684.398 590.722 686.5 590.722 688.864V722H582.676ZM625.895 702.909L625.759 692.955H627.395L650.304 669.636H660.259L635.849 694.318H635.168L625.895 702.909ZM618.395 722V652.182H626.44V722H618.395ZM651.668 722L631.213 696.091L636.94 690.5L661.895 722H651.668ZM707.705 681.364L700.477 683.409C700.023 682.205 699.352 681.034 698.466 679.898C697.602 678.739 696.42 677.784 694.92 677.034C693.42 676.284 691.5 675.909 689.159 675.909C685.955 675.909 683.284 676.648 681.148 678.125C679.034 679.58 677.977 681.432 677.977 683.682C677.977 685.682 678.705 687.261 680.159 688.42C681.614 689.58 683.886 690.545 686.977 691.318L694.75 693.227C699.432 694.364 702.92 696.102 705.216 698.443C707.511 700.761 708.659 703.75 708.659 707.409C708.659 710.409 707.795 713.091 706.068 715.455C704.364 717.818 701.977 719.682 698.909 721.045C695.841 722.409 692.273 723.091 688.205 723.091C682.864 723.091 678.443 721.932 674.943 719.614C671.443 717.295 669.227 713.909 668.295 709.455L675.932 707.545C676.659 710.364 678.034 712.477 680.057 713.886C682.102 715.295 684.773 716 688.068 716C691.818 716 694.795 715.205 697 713.614C699.227 712 700.341 710.068 700.341 707.818C700.341 706 699.705 704.477 698.432 703.25C697.159 702 695.205 701.068 692.568 700.455L683.841 698.409C679.045 697.273 675.523 695.511 673.273 693.125C671.045 690.716 669.932 687.705 669.932 684.091C669.932 681.136 670.761 678.523 672.42 676.25C674.102 673.977 676.386 672.193 679.273 670.898C682.182 669.602 685.477 668.955 689.159 668.955C694.341 668.955 698.409 670.091 701.364 672.364C704.341 674.636 706.455 677.636 707.705 681.364ZM769.043 723.091C764.315 723.091 760.168 721.966 756.599 719.716C753.054 717.466 750.281 714.318 748.281 710.273C746.304 706.227 745.315 701.5 745.315 696.091C745.315 690.636 746.304 685.875 748.281 681.807C750.281 677.739 753.054 674.58 756.599 672.33C760.168 670.08 764.315 668.955 769.043 668.955C773.77 668.955 777.906 670.08 781.452 672.33C785.02 674.58 787.793 677.739 789.77 681.807C791.77 685.875 792.77 690.636 792.77 696.091C792.77 701.5 791.77 706.227 789.77 710.273C787.793 714.318 785.02 717.466 781.452 719.716C777.906 721.966 773.77 723.091 769.043 723.091ZM769.043 715.864C772.634 715.864 775.588 714.943 777.906 713.102C780.224 711.261 781.94 708.841 783.054 705.841C784.168 702.841 784.724 699.591 784.724 696.091C784.724 692.591 784.168 689.33 783.054 686.307C781.94 683.284 780.224 680.841 777.906 678.977C775.588 677.114 772.634 676.182 769.043 676.182C765.452 676.182 762.497 677.114 760.179 678.977C757.861 680.841 756.145 683.284 755.031 686.307C753.918 689.33 753.361 692.591 753.361 696.091C753.361 699.591 753.918 702.841 755.031 705.841C756.145 708.841 757.861 711.261 760.179 713.102C762.497 714.943 765.452 715.864 769.043 715.864ZM813.097 690.5V722H805.051V669.636H812.824V677.818H813.506C814.733 675.159 816.597 673.023 819.097 671.409C821.597 669.773 824.824 668.955 828.778 668.955C832.324 668.955 835.426 669.682 838.085 671.136C840.744 672.568 842.813 674.75 844.29 677.682C845.767 680.591 846.506 684.273 846.506 688.727V722H838.46V689.273C838.46 685.159 837.392 681.955 835.256 679.659C833.119 677.341 830.188 676.182 826.46 676.182C823.892 676.182 821.597 676.739 819.574 677.852C817.574 678.966 815.994 680.591 814.835 682.727C813.676 684.864 813.097 687.455 813.097 690.5ZM219.659 768.182V838H211.614V768.182H219.659ZM249.804 839.227C246.486 839.227 243.474 838.602 240.77 837.352C238.065 836.08 235.918 834.25 234.327 831.864C232.736 829.455 231.94 826.545 231.94 823.136C231.94 820.136 232.531 817.705 233.713 815.841C234.895 813.955 236.474 812.477 238.452 811.409C240.429 810.341 242.611 809.545 244.997 809.023C247.406 808.477 249.827 808.045 252.259 807.727C255.44 807.318 258.02 807.011 259.997 806.807C261.997 806.58 263.452 806.205 264.361 805.682C265.293 805.159 265.759 804.25 265.759 802.955V802.682C265.759 799.318 264.838 796.705 262.997 794.841C261.179 792.977 258.418 792.045 254.713 792.045C250.872 792.045 247.861 792.886 245.679 794.568C243.497 796.25 241.963 798.045 241.077 799.955L233.44 797.227C234.804 794.045 236.622 791.568 238.895 789.795C241.19 788 243.69 786.75 246.395 786.045C249.122 785.318 251.804 784.955 254.44 784.955C256.122 784.955 258.054 785.159 260.236 785.568C262.44 785.955 264.565 786.761 266.611 787.989C268.679 789.216 270.395 791.068 271.759 793.545C273.122 796.023 273.804 799.341 273.804 803.5V838H265.759V830.909H265.349C264.804 832.045 263.895 833.261 262.622 834.557C261.349 835.852 259.656 836.955 257.543 837.864C255.429 838.773 252.849 839.227 249.804 839.227ZM251.031 832C254.213 832 256.895 831.375 259.077 830.125C261.281 828.875 262.94 827.261 264.054 825.284C265.19 823.307 265.759 821.227 265.759 819.045V811.682C265.418 812.091 264.668 812.466 263.509 812.807C262.372 813.125 261.054 813.409 259.554 813.659C258.077 813.886 256.634 814.091 255.224 814.273C253.838 814.432 252.713 814.568 251.849 814.682C249.759 814.955 247.804 815.398 245.986 816.011C244.19 816.602 242.736 817.5 241.622 818.705C240.531 819.886 239.986 821.5 239.986 823.545C239.986 826.341 241.02 828.455 243.088 829.886C245.179 831.295 247.827 832 251.031 832ZM288.489 838V785.636H296.261V793.545H296.807C297.761 790.955 299.489 788.852 301.989 787.239C304.489 785.625 307.307 784.818 310.443 784.818C311.034 784.818 311.773 784.83 312.659 784.852C313.545 784.875 314.216 784.909 314.67 784.955V793.136C314.398 793.068 313.773 792.966 312.795 792.83C311.841 792.67 310.83 792.591 309.761 792.591C307.216 792.591 304.943 793.125 302.943 794.193C300.966 795.239 299.398 796.693 298.239 798.557C297.102 800.398 296.534 802.5 296.534 804.864V838H288.489ZM343.75 858.727C339.864 858.727 336.523 858.227 333.727 857.227C330.932 856.25 328.602 854.955 326.739 853.341C324.898 851.75 323.432 850.045 322.341 848.227L328.75 843.727C329.477 844.682 330.398 845.773 331.511 847C332.625 848.25 334.148 849.33 336.08 850.239C338.034 851.17 340.591 851.636 343.75 851.636C347.977 851.636 351.466 850.614 354.216 848.568C356.966 846.523 358.341 843.318 358.341 838.955V828.318H357.659C357.068 829.273 356.227 830.455 355.136 831.864C354.068 833.25 352.523 834.489 350.5 835.58C348.5 836.648 345.795 837.182 342.386 837.182C338.159 837.182 334.364 836.182 331 834.182C327.659 832.182 325.011 829.273 323.057 825.455C321.125 821.636 320.159 817 320.159 811.545C320.159 806.182 321.102 801.511 322.989 797.534C324.875 793.534 327.5 790.443 330.864 788.261C334.227 786.057 338.114 784.955 342.523 784.955C345.932 784.955 348.636 785.523 350.636 786.659C352.659 787.773 354.205 789.045 355.273 790.477C356.364 791.886 357.205 793.045 357.795 793.955H358.614V785.636H366.386V839.5C366.386 844 365.364 847.659 363.318 850.477C361.295 853.318 358.568 855.398 355.136 856.716C351.727 858.057 347.932 858.727 343.75 858.727ZM343.477 829.955C346.705 829.955 349.432 829.216 351.659 827.739C353.886 826.261 355.58 824.136 356.739 821.364C357.898 818.591 358.477 815.273 358.477 811.409C358.477 807.636 357.909 804.307 356.773 801.42C355.636 798.534 353.955 796.273 351.727 794.636C349.5 793 346.75 792.182 343.477 792.182C340.068 792.182 337.227 793.045 334.955 794.773C332.705 796.5 331.011 798.818 329.875 801.727C328.761 804.636 328.205 807.864 328.205 811.409C328.205 815.045 328.773 818.261 329.909 821.057C331.068 823.83 332.773 826.011 335.023 827.602C337.295 829.17 340.114 829.955 343.477 829.955ZM403.068 839.091C398.023 839.091 393.67 837.977 390.011 835.75C386.375 833.5 383.568 830.364 381.591 826.341C379.636 822.295 378.659 817.591 378.659 812.227C378.659 806.864 379.636 802.136 381.591 798.045C383.568 793.932 386.318 790.727 389.841 788.432C393.386 786.114 397.523 784.955 402.25 784.955C404.977 784.955 407.67 785.409 410.33 786.318C412.989 787.227 415.409 788.705 417.591 790.75C419.773 792.773 421.511 795.455 422.807 798.795C424.102 802.136 424.75 806.25 424.75 811.136V814.545H384.386V807.591H416.568C416.568 804.636 415.977 802 414.795 799.682C413.636 797.364 411.977 795.534 409.818 794.193C407.682 792.852 405.159 792.182 402.25 792.182C399.045 792.182 396.273 792.977 393.932 794.568C391.614 796.136 389.83 798.182 388.58 800.705C387.33 803.227 386.705 805.932 386.705 808.818V813.455C386.705 817.409 387.386 820.761 388.75 823.511C390.136 826.239 392.057 828.318 394.511 829.75C396.966 831.159 399.818 831.864 403.068 831.864C405.182 831.864 407.091 831.568 408.795 830.977C410.523 830.364 412.011 829.455 413.261 828.25C414.511 827.023 415.477 825.5 416.159 823.682L423.932 825.864C423.114 828.5 421.739 830.818 419.807 832.818C417.875 834.795 415.489 836.341 412.648 837.455C409.807 838.545 406.614 839.091 403.068 839.091ZM436.989 838V785.636H444.761V793.545H445.307C446.261 790.955 447.989 788.852 450.489 787.239C452.989 785.625 455.807 784.818 458.943 784.818C459.534 784.818 460.273 784.83 461.159 784.852C462.045 784.875 462.716 784.909 463.17 784.955V793.136C462.898 793.068 462.273 792.966 461.295 792.83C460.341 792.67 459.33 792.591 458.261 792.591C455.716 792.591 453.443 793.125 451.443 794.193C449.466 795.239 447.898 796.693 446.739 798.557C445.602 800.398 445.034 802.5 445.034 804.864V838H436.989ZM536.798 797.364L529.571 799.409C529.116 798.205 528.446 797.034 527.56 795.898C526.696 794.739 525.514 793.784 524.014 793.034C522.514 792.284 520.594 791.909 518.253 791.909C515.048 791.909 512.378 792.648 510.241 794.125C508.128 795.58 507.071 797.432 507.071 799.682C507.071 801.682 507.798 803.261 509.253 804.42C510.707 805.58 512.98 806.545 516.071 807.318L523.844 809.227C528.526 810.364 532.014 812.102 534.31 814.443C536.605 816.761 537.753 819.75 537.753 823.409C537.753 826.409 536.889 829.091 535.162 831.455C533.457 833.818 531.071 835.682 528.003 837.045C524.935 838.409 521.366 839.091 517.298 839.091C511.957 839.091 507.537 837.932 504.037 835.614C500.537 833.295 498.321 829.909 497.389 825.455L505.026 823.545C505.753 826.364 507.128 828.477 509.151 829.886C511.196 831.295 513.866 832 517.162 832C520.912 832 523.889 831.205 526.094 829.614C528.321 828 529.435 826.068 529.435 823.818C529.435 822 528.798 820.477 527.526 819.25C526.253 818 524.298 817.068 521.662 816.455L512.935 814.409C508.139 813.273 504.616 811.511 502.366 809.125C500.139 806.716 499.026 803.705 499.026 800.091C499.026 797.136 499.855 794.523 501.514 792.25C503.196 789.977 505.48 788.193 508.366 786.898C511.276 785.602 514.571 784.955 518.253 784.955C523.435 784.955 527.503 786.091 530.457 788.364C533.435 790.636 535.548 793.636 536.798 797.364ZM571.136 839.091C566.227 839.091 562 837.932 558.455 835.614C554.909 833.295 552.182 830.102 550.273 826.034C548.364 821.966 547.409 817.318 547.409 812.091C547.409 806.773 548.386 802.08 550.341 798.011C552.318 793.92 555.068 790.727 558.591 788.432C562.136 786.114 566.273 784.955 571 784.955C574.682 784.955 578 785.636 580.955 787C583.909 788.364 586.33 790.273 588.216 792.727C590.102 795.182 591.273 798.045 591.727 801.318H583.682C583.068 798.932 581.705 796.818 579.591 794.977C577.5 793.114 574.682 792.182 571.136 792.182C568 792.182 565.25 793 562.886 794.636C560.545 796.25 558.716 798.534 557.398 801.489C556.102 804.42 555.455 807.864 555.455 811.818C555.455 815.864 556.091 819.386 557.364 822.386C558.659 825.386 560.477 827.716 562.818 829.375C565.182 831.034 567.955 831.864 571.136 831.864C573.227 831.864 575.125 831.5 576.83 830.773C578.534 830.045 579.977 829 581.159 827.636C582.341 826.273 583.182 824.636 583.682 822.727H591.727C591.273 825.818 590.148 828.602 588.352 831.08C586.58 833.534 584.227 835.489 581.295 836.943C578.386 838.375 575 839.091 571.136 839.091ZM603.489 838V785.636H611.261V793.545H611.807C612.761 790.955 614.489 788.852 616.989 787.239C619.489 785.625 622.307 784.818 625.443 784.818C626.034 784.818 626.773 784.83 627.659 784.852C628.545 784.875 629.216 784.909 629.67 784.955V793.136C629.398 793.068 628.773 792.966 627.795 792.83C626.841 792.67 625.83 792.591 624.761 792.591C622.216 792.591 619.943 793.125 617.943 794.193C615.966 795.239 614.398 796.693 613.239 798.557C612.102 800.398 611.534 802.5 611.534 804.864V838H603.489ZM659.568 839.091C654.523 839.091 650.17 837.977 646.511 835.75C642.875 833.5 640.068 830.364 638.091 826.341C636.136 822.295 635.159 817.591 635.159 812.227C635.159 806.864 636.136 802.136 638.091 798.045C640.068 793.932 642.818 790.727 646.341 788.432C649.886 786.114 654.023 784.955 658.75 784.955C661.477 784.955 664.17 785.409 666.83 786.318C669.489 787.227 671.909 788.705 674.091 790.75C676.273 792.773 678.011 795.455 679.307 798.795C680.602 802.136 681.25 806.25 681.25 811.136V814.545H640.886V807.591H673.068C673.068 804.636 672.477 802 671.295 799.682C670.136 797.364 668.477 795.534 666.318 794.193C664.182 792.852 661.659 792.182 658.75 792.182C655.545 792.182 652.773 792.977 650.432 794.568C648.114 796.136 646.33 798.182 645.08 800.705C643.83 803.227 643.205 805.932 643.205 808.818V813.455C643.205 817.409 643.886 820.761 645.25 823.511C646.636 826.239 648.557 828.318 651.011 829.75C653.466 831.159 656.318 831.864 659.568 831.864C661.682 831.864 663.591 831.568 665.295 830.977C667.023 830.364 668.511 829.455 669.761 828.25C671.011 827.023 671.977 825.5 672.659 823.682L680.432 825.864C679.614 828.5 678.239 830.818 676.307 832.818C674.375 834.795 671.989 836.341 669.148 837.455C666.307 838.545 663.114 839.091 659.568 839.091ZM715.443 839.091C710.398 839.091 706.045 837.977 702.386 835.75C698.75 833.5 695.943 830.364 693.966 826.341C692.011 822.295 691.034 817.591 691.034 812.227C691.034 806.864 692.011 802.136 693.966 798.045C695.943 793.932 698.693 790.727 702.216 788.432C705.761 786.114 709.898 784.955 714.625 784.955C717.352 784.955 720.045 785.409 722.705 786.318C725.364 787.227 727.784 788.705 729.966 790.75C732.148 792.773 733.886 795.455 735.182 798.795C736.477 802.136 737.125 806.25 737.125 811.136V814.545H696.761V807.591H728.943C728.943 804.636 728.352 802 727.17 799.682C726.011 797.364 724.352 795.534 722.193 794.193C720.057 792.852 717.534 792.182 714.625 792.182C711.42 792.182 708.648 792.977 706.307 794.568C703.989 796.136 702.205 798.182 700.955 800.705C699.705 803.227 699.08 805.932 699.08 808.818V813.455C699.08 817.409 699.761 820.761 701.125 823.511C702.511 826.239 704.432 828.318 706.886 829.75C709.341 831.159 712.193 831.864 715.443 831.864C717.557 831.864 719.466 831.568 721.17 830.977C722.898 830.364 724.386 829.455 725.636 828.25C726.886 827.023 727.852 825.5 728.534 823.682L736.307 825.864C735.489 828.5 734.114 830.818 732.182 832.818C730.25 834.795 727.864 836.341 725.023 837.455C722.182 838.545 718.989 839.091 715.443 839.091ZM757.409 806.5V838H749.364V785.636H757.136V793.818H757.818C759.045 791.159 760.909 789.023 763.409 787.409C765.909 785.773 769.136 784.955 773.091 784.955C776.636 784.955 779.739 785.682 782.398 787.136C785.057 788.568 787.125 790.75 788.602 793.682C790.08 796.591 790.818 800.273 790.818 804.727V838H782.773V805.273C782.773 801.159 781.705 797.955 779.568 795.659C777.432 793.341 774.5 792.182 770.773 792.182C768.205 792.182 765.909 792.739 763.886 793.852C761.886 794.966 760.307 796.591 759.148 798.727C757.989 800.864 757.409 803.455 757.409 806.5ZM842.611 797.364L835.384 799.409C834.929 798.205 834.259 797.034 833.372 795.898C832.509 794.739 831.327 793.784 829.827 793.034C828.327 792.284 826.406 791.909 824.065 791.909C820.861 791.909 818.19 792.648 816.054 794.125C813.94 795.58 812.884 797.432 812.884 799.682C812.884 801.682 813.611 803.261 815.065 804.42C816.52 805.58 818.793 806.545 821.884 807.318L829.656 809.227C834.338 810.364 837.827 812.102 840.122 814.443C842.418 816.761 843.565 819.75 843.565 823.409C843.565 826.409 842.702 829.091 840.974 831.455C839.27 833.818 836.884 835.682 833.815 837.045C830.747 838.409 827.179 839.091 823.111 839.091C817.77 839.091 813.349 837.932 809.849 835.614C806.349 833.295 804.134 829.909 803.202 825.455L810.838 823.545C811.565 826.364 812.94 828.477 814.963 829.886C817.009 831.295 819.679 832 822.974 832C826.724 832 829.702 831.205 831.906 829.614C834.134 828 835.247 826.068 835.247 823.818C835.247 822 834.611 820.477 833.338 819.25C832.065 818 830.111 817.068 827.474 816.455L818.747 814.409C813.952 813.273 810.429 811.511 808.179 809.125C805.952 806.716 804.838 803.705 804.838 800.091C804.838 797.136 805.668 794.523 807.327 792.25C809.009 789.977 811.293 788.193 814.179 786.898C817.088 785.602 820.384 784.955 824.065 784.955C829.247 784.955 833.315 786.091 836.27 788.364C839.247 790.636 841.361 793.636 842.611 797.364ZM861.54 838.545C859.858 838.545 858.415 837.943 857.21 836.739C856.006 835.534 855.403 834.091 855.403 832.409C855.403 830.727 856.006 829.284 857.21 828.08C858.415 826.875 859.858 826.273 861.54 826.273C863.222 826.273 864.665 826.875 865.869 828.08C867.074 829.284 867.676 830.727 867.676 832.409C867.676 833.523 867.392 834.545 866.824 835.477C866.278 836.409 865.54 837.159 864.608 837.727C863.699 838.273 862.676 838.545 861.54 838.545ZM263.142 1070V1000.18H286.733C292.21 1000.18 296.688 1001.17 300.165 1003.15C303.665 1005.1 306.256 1007.75 307.938 1011.09C309.619 1014.43 310.46 1018.16 310.46 1022.27C310.46 1026.39 309.619 1030.12 307.938 1033.49C306.278 1036.85 303.71 1039.53 300.233 1041.53C296.756 1043.51 292.301 1044.5 286.869 1044.5H269.96V1037H286.597C290.347 1037 293.358 1036.35 295.631 1035.06C297.903 1033.76 299.551 1032.01 300.574 1029.81C301.619 1027.58 302.142 1025.07 302.142 1022.27C302.142 1019.48 301.619 1016.98 300.574 1014.77C299.551 1012.57 297.892 1010.84 295.597 1009.59C293.301 1008.32 290.256 1007.68 286.46 1007.68H271.597V1070H263.142ZM331.034 1000.18V1070H322.989V1000.18H331.034ZM367.724 1071.09C362.679 1071.09 358.327 1069.98 354.668 1067.75C351.031 1065.5 348.224 1062.36 346.247 1058.34C344.293 1054.3 343.315 1049.59 343.315 1044.23C343.315 1038.86 344.293 1034.14 346.247 1030.05C348.224 1025.93 350.974 1022.73 354.497 1020.43C358.043 1018.11 362.179 1016.95 366.906 1016.95C369.634 1016.95 372.327 1017.41 374.986 1018.32C377.645 1019.23 380.065 1020.7 382.247 1022.75C384.429 1024.77 386.168 1027.45 387.463 1030.8C388.759 1034.14 389.406 1038.25 389.406 1043.14V1046.55H349.043V1039.59H381.224C381.224 1036.64 380.634 1034 379.452 1031.68C378.293 1029.36 376.634 1027.53 374.474 1026.19C372.338 1024.85 369.815 1024.18 366.906 1024.18C363.702 1024.18 360.929 1024.98 358.588 1026.57C356.27 1028.14 354.486 1030.18 353.236 1032.7C351.986 1035.23 351.361 1037.93 351.361 1040.82V1045.45C351.361 1049.41 352.043 1052.76 353.406 1055.51C354.793 1058.24 356.713 1060.32 359.168 1061.75C361.622 1063.16 364.474 1063.86 367.724 1063.86C369.838 1063.86 371.747 1063.57 373.452 1062.98C375.179 1062.36 376.668 1061.45 377.918 1060.25C379.168 1059.02 380.134 1057.5 380.815 1055.68L388.588 1057.86C387.77 1060.5 386.395 1062.82 384.463 1064.82C382.531 1066.8 380.145 1068.34 377.304 1069.45C374.463 1070.55 371.27 1071.09 367.724 1071.09ZM417.054 1071.23C413.736 1071.23 410.724 1070.6 408.02 1069.35C405.315 1068.08 403.168 1066.25 401.577 1063.86C399.986 1061.45 399.19 1058.55 399.19 1055.14C399.19 1052.14 399.781 1049.7 400.963 1047.84C402.145 1045.95 403.724 1044.48 405.702 1043.41C407.679 1042.34 409.861 1041.55 412.247 1041.02C414.656 1040.48 417.077 1040.05 419.509 1039.73C422.69 1039.32 425.27 1039.01 427.247 1038.81C429.247 1038.58 430.702 1038.2 431.611 1037.68C432.543 1037.16 433.009 1036.25 433.009 1034.95V1034.68C433.009 1031.32 432.088 1028.7 430.247 1026.84C428.429 1024.98 425.668 1024.05 421.963 1024.05C418.122 1024.05 415.111 1024.89 412.929 1026.57C410.747 1028.25 409.213 1030.05 408.327 1031.95L400.69 1029.23C402.054 1026.05 403.872 1023.57 406.145 1021.8C408.44 1020 410.94 1018.75 413.645 1018.05C416.372 1017.32 419.054 1016.95 421.69 1016.95C423.372 1016.95 425.304 1017.16 427.486 1017.57C429.69 1017.95 431.815 1018.76 433.861 1019.99C435.929 1021.22 437.645 1023.07 439.009 1025.55C440.372 1028.02 441.054 1031.34 441.054 1035.5V1070H433.009V1062.91H432.599C432.054 1064.05 431.145 1065.26 429.872 1066.56C428.599 1067.85 426.906 1068.95 424.793 1069.86C422.679 1070.77 420.099 1071.23 417.054 1071.23ZM418.281 1064C421.463 1064 424.145 1063.38 426.327 1062.12C428.531 1060.88 430.19 1059.26 431.304 1057.28C432.44 1055.31 433.009 1053.23 433.009 1051.05V1043.68C432.668 1044.09 431.918 1044.47 430.759 1044.81C429.622 1045.12 428.304 1045.41 426.804 1045.66C425.327 1045.89 423.884 1046.09 422.474 1046.27C421.088 1046.43 419.963 1046.57 419.099 1046.68C417.009 1046.95 415.054 1047.4 413.236 1048.01C411.44 1048.6 409.986 1049.5 408.872 1050.7C407.781 1051.89 407.236 1053.5 407.236 1055.55C407.236 1058.34 408.27 1060.45 410.338 1061.89C412.429 1063.3 415.077 1064 418.281 1064ZM492.83 1029.36L485.602 1031.41C485.148 1030.2 484.477 1029.03 483.591 1027.9C482.727 1026.74 481.545 1025.78 480.045 1025.03C478.545 1024.28 476.625 1023.91 474.284 1023.91C471.08 1023.91 468.409 1024.65 466.273 1026.12C464.159 1027.58 463.102 1029.43 463.102 1031.68C463.102 1033.68 463.83 1035.26 465.284 1036.42C466.739 1037.58 469.011 1038.55 472.102 1039.32L479.875 1041.23C484.557 1042.36 488.045 1044.1 490.341 1046.44C492.636 1048.76 493.784 1051.75 493.784 1055.41C493.784 1058.41 492.92 1061.09 491.193 1063.45C489.489 1065.82 487.102 1067.68 484.034 1069.05C480.966 1070.41 477.398 1071.09 473.33 1071.09C467.989 1071.09 463.568 1069.93 460.068 1067.61C456.568 1065.3 454.352 1061.91 453.42 1057.45L461.057 1055.55C461.784 1058.36 463.159 1060.48 465.182 1061.89C467.227 1063.3 469.898 1064 473.193 1064C476.943 1064 479.92 1063.2 482.125 1061.61C484.352 1060 485.466 1058.07 485.466 1055.82C485.466 1054 484.83 1052.48 483.557 1051.25C482.284 1050 480.33 1049.07 477.693 1048.45L468.966 1046.41C464.17 1045.27 460.648 1043.51 458.398 1041.12C456.17 1038.72 455.057 1035.7 455.057 1032.09C455.057 1029.14 455.886 1026.52 457.545 1024.25C459.227 1021.98 461.511 1020.19 464.398 1018.9C467.307 1017.6 470.602 1016.95 474.284 1016.95C479.466 1016.95 483.534 1018.09 486.489 1020.36C489.466 1022.64 491.58 1025.64 492.83 1029.36ZM527.849 1071.09C522.804 1071.09 518.452 1069.98 514.793 1067.75C511.156 1065.5 508.349 1062.36 506.372 1058.34C504.418 1054.3 503.44 1049.59 503.44 1044.23C503.44 1038.86 504.418 1034.14 506.372 1030.05C508.349 1025.93 511.099 1022.73 514.622 1020.43C518.168 1018.11 522.304 1016.95 527.031 1016.95C529.759 1016.95 532.452 1017.41 535.111 1018.32C537.77 1019.23 540.19 1020.7 542.372 1022.75C544.554 1024.77 546.293 1027.45 547.588 1030.8C548.884 1034.14 549.531 1038.25 549.531 1043.14V1046.55H509.168V1039.59H541.349C541.349 1036.64 540.759 1034 539.577 1031.68C538.418 1029.36 536.759 1027.53 534.599 1026.19C532.463 1024.85 529.94 1024.18 527.031 1024.18C523.827 1024.18 521.054 1024.98 518.713 1026.57C516.395 1028.14 514.611 1030.18 513.361 1032.7C512.111 1035.23 511.486 1037.93 511.486 1040.82V1045.45C511.486 1049.41 512.168 1052.76 513.531 1055.51C514.918 1058.24 516.838 1060.32 519.293 1061.75C521.747 1063.16 524.599 1063.86 527.849 1063.86C529.963 1063.86 531.872 1063.57 533.577 1062.98C535.304 1062.36 536.793 1061.45 538.043 1060.25C539.293 1059.02 540.259 1057.5 540.94 1055.68L548.713 1057.86C547.895 1060.5 546.52 1062.82 544.588 1064.82C542.656 1066.8 540.27 1068.34 537.429 1069.45C534.588 1070.55 531.395 1071.09 527.849 1071.09ZM621.77 1048.59V1017.64H629.815V1070H621.77V1061.14H621.224C619.997 1063.8 618.088 1066.06 615.497 1067.92C612.906 1069.76 609.634 1070.68 605.679 1070.68C602.406 1070.68 599.497 1069.97 596.952 1068.53C594.406 1067.08 592.406 1064.9 590.952 1061.99C589.497 1059.06 588.77 1055.36 588.77 1050.91V1017.64H596.815V1050.36C596.815 1054.18 597.884 1057.23 600.02 1059.5C602.179 1061.77 604.929 1062.91 608.27 1062.91C610.27 1062.91 612.304 1062.4 614.372 1061.38C616.463 1060.35 618.213 1058.78 619.622 1056.67C621.054 1054.56 621.77 1051.86 621.77 1048.59ZM681.642 1029.36L674.415 1031.41C673.96 1030.2 673.29 1029.03 672.403 1027.9C671.54 1026.74 670.358 1025.78 668.858 1025.03C667.358 1024.28 665.438 1023.91 663.097 1023.91C659.892 1023.91 657.222 1024.65 655.085 1026.12C652.972 1027.58 651.915 1029.43 651.915 1031.68C651.915 1033.68 652.642 1035.26 654.097 1036.42C655.551 1037.58 657.824 1038.55 660.915 1039.32L668.688 1041.23C673.369 1042.36 676.858 1044.1 679.153 1046.44C681.449 1048.76 682.597 1051.75 682.597 1055.41C682.597 1058.41 681.733 1061.09 680.006 1063.45C678.301 1065.82 675.915 1067.68 672.847 1069.05C669.778 1070.41 666.21 1071.09 662.142 1071.09C656.801 1071.09 652.381 1069.93 648.881 1067.61C645.381 1065.3 643.165 1061.91 642.233 1057.45L649.869 1055.55C650.597 1058.36 651.972 1060.48 653.994 1061.89C656.04 1063.3 658.71 1064 662.006 1064C665.756 1064 668.733 1063.2 670.938 1061.61C673.165 1060 674.278 1058.07 674.278 1055.82C674.278 1054 673.642 1052.48 672.369 1051.25C671.097 1050 669.142 1049.07 666.506 1048.45L657.778 1046.41C652.983 1045.27 649.46 1043.51 647.21 1041.12C644.983 1038.72 643.869 1035.7 643.869 1032.09C643.869 1029.14 644.699 1026.52 646.358 1024.25C648.04 1021.98 650.324 1020.19 653.21 1018.9C656.119 1017.6 659.415 1016.95 663.097 1016.95C668.278 1016.95 672.347 1018.09 675.301 1020.36C678.278 1022.64 680.392 1025.64 681.642 1029.36ZM716.662 1071.09C711.616 1071.09 707.264 1069.98 703.605 1067.75C699.969 1065.5 697.162 1062.36 695.185 1058.34C693.23 1054.3 692.253 1049.59 692.253 1044.23C692.253 1038.86 693.23 1034.14 695.185 1030.05C697.162 1025.93 699.912 1022.73 703.435 1020.43C706.98 1018.11 711.116 1016.95 715.844 1016.95C718.571 1016.95 721.264 1017.41 723.923 1018.32C726.582 1019.23 729.003 1020.7 731.185 1022.75C733.366 1024.77 735.105 1027.45 736.401 1030.8C737.696 1034.14 738.344 1038.25 738.344 1043.14V1046.55H697.98V1039.59H730.162C730.162 1036.64 729.571 1034 728.389 1031.68C727.23 1029.36 725.571 1027.53 723.412 1026.19C721.276 1024.85 718.753 1024.18 715.844 1024.18C712.639 1024.18 709.866 1024.98 707.526 1026.57C705.207 1028.14 703.423 1030.18 702.173 1032.7C700.923 1035.23 700.298 1037.93 700.298 1040.82V1045.45C700.298 1049.41 700.98 1052.76 702.344 1055.51C703.73 1058.24 705.651 1060.32 708.105 1061.75C710.56 1063.16 713.412 1063.86 716.662 1063.86C718.776 1063.86 720.685 1063.57 722.389 1062.98C724.116 1062.36 725.605 1061.45 726.855 1060.25C728.105 1059.02 729.071 1057.5 729.753 1055.68L737.526 1057.86C736.707 1060.5 735.332 1062.82 733.401 1064.82C731.469 1066.8 729.082 1068.34 726.241 1069.45C723.401 1070.55 720.207 1071.09 716.662 1071.09ZM792.991 1071.23C789.673 1071.23 786.662 1070.6 783.957 1069.35C781.253 1068.08 779.105 1066.25 777.514 1063.86C775.923 1061.45 775.128 1058.55 775.128 1055.14C775.128 1052.14 775.719 1049.7 776.901 1047.84C778.082 1045.95 779.662 1044.48 781.639 1043.41C783.616 1042.34 785.798 1041.55 788.185 1041.02C790.594 1040.48 793.014 1040.05 795.446 1039.73C798.628 1039.32 801.207 1039.01 803.185 1038.81C805.185 1038.58 806.639 1038.2 807.548 1037.68C808.48 1037.16 808.946 1036.25 808.946 1034.95V1034.68C808.946 1031.32 808.026 1028.7 806.185 1026.84C804.366 1024.98 801.605 1024.05 797.901 1024.05C794.06 1024.05 791.048 1024.89 788.866 1026.57C786.685 1028.25 785.151 1030.05 784.264 1031.95L776.628 1029.23C777.991 1026.05 779.81 1023.57 782.082 1021.8C784.378 1020 786.878 1018.75 789.582 1018.05C792.31 1017.32 794.991 1016.95 797.628 1016.95C799.31 1016.95 801.241 1017.16 803.423 1017.57C805.628 1017.95 807.753 1018.76 809.798 1019.99C811.866 1021.22 813.582 1023.07 814.946 1025.55C816.31 1028.02 816.991 1031.34 816.991 1035.5V1070H808.946V1062.91H808.537C807.991 1064.05 807.082 1065.26 805.81 1066.56C804.537 1067.85 802.844 1068.95 800.73 1069.86C798.616 1070.77 796.037 1071.23 792.991 1071.23ZM794.219 1064C797.401 1064 800.082 1063.38 802.264 1062.12C804.469 1060.88 806.128 1059.26 807.241 1057.28C808.378 1055.31 808.946 1053.23 808.946 1051.05V1043.68C808.605 1044.09 807.855 1044.47 806.696 1044.81C805.56 1045.12 804.241 1045.41 802.741 1045.66C801.264 1045.89 799.821 1046.09 798.412 1046.27C797.026 1046.43 795.901 1046.57 795.037 1046.68C792.946 1046.95 790.991 1047.4 789.173 1048.01C787.378 1048.6 785.923 1049.5 784.81 1050.7C783.719 1051.89 783.173 1053.5 783.173 1055.55C783.173 1058.34 784.207 1060.45 786.276 1061.89C788.366 1063.3 791.014 1064 794.219 1064ZM290.871 1187.09C285.962 1187.09 281.734 1185.93 278.189 1183.61C274.643 1181.3 271.916 1178.1 270.007 1174.03C268.098 1169.97 267.143 1165.32 267.143 1160.09C267.143 1154.77 268.121 1150.08 270.075 1146.01C272.053 1141.92 274.803 1138.73 278.325 1136.43C281.871 1134.11 286.007 1132.95 290.734 1132.95C294.416 1132.95 297.734 1133.64 300.689 1135C303.643 1136.36 306.064 1138.27 307.95 1140.73C309.837 1143.18 311.007 1146.05 311.462 1149.32H303.416C302.803 1146.93 301.439 1144.82 299.325 1142.98C297.234 1141.11 294.416 1140.18 290.871 1140.18C287.734 1140.18 284.984 1141 282.621 1142.64C280.28 1144.25 278.45 1146.53 277.132 1149.49C275.837 1152.42 275.189 1155.86 275.189 1159.82C275.189 1163.86 275.825 1167.39 277.098 1170.39C278.393 1173.39 280.212 1175.72 282.553 1177.38C284.916 1179.03 287.689 1179.86 290.871 1179.86C292.962 1179.86 294.859 1179.5 296.564 1178.77C298.268 1178.05 299.712 1177 300.893 1175.64C302.075 1174.27 302.916 1172.64 303.416 1170.73H311.462C311.007 1173.82 309.882 1176.6 308.087 1179.08C306.314 1181.53 303.962 1183.49 301.03 1184.94C298.121 1186.38 294.734 1187.09 290.871 1187.09ZM344.496 1187.09C339.768 1187.09 335.621 1185.97 332.053 1183.72C328.507 1181.47 325.734 1178.32 323.734 1174.27C321.757 1170.23 320.768 1165.5 320.768 1160.09C320.768 1154.64 321.757 1149.87 323.734 1145.81C325.734 1141.74 328.507 1138.58 332.053 1136.33C335.621 1134.08 339.768 1132.95 344.496 1132.95C349.223 1132.95 353.359 1134.08 356.905 1136.33C360.473 1138.58 363.246 1141.74 365.223 1145.81C367.223 1149.87 368.223 1154.64 368.223 1160.09C368.223 1165.5 367.223 1170.23 365.223 1174.27C363.246 1178.32 360.473 1181.47 356.905 1183.72C353.359 1185.97 349.223 1187.09 344.496 1187.09ZM344.496 1179.86C348.087 1179.86 351.041 1178.94 353.359 1177.1C355.678 1175.26 357.393 1172.84 358.507 1169.84C359.621 1166.84 360.178 1163.59 360.178 1160.09C360.178 1156.59 359.621 1153.33 358.507 1150.31C357.393 1147.28 355.678 1144.84 353.359 1142.98C351.041 1141.11 348.087 1140.18 344.496 1140.18C340.905 1140.18 337.95 1141.11 335.632 1142.98C333.314 1144.84 331.598 1147.28 330.484 1150.31C329.371 1153.33 328.814 1156.59 328.814 1160.09C328.814 1163.59 329.371 1166.84 330.484 1169.84C331.598 1172.84 333.314 1175.26 335.632 1177.1C337.95 1178.94 340.905 1179.86 344.496 1179.86ZM380.504 1186V1133.64H388.277V1141.82H388.959C390.05 1139.02 391.811 1136.85 394.243 1135.31C396.675 1133.74 399.595 1132.95 403.004 1132.95C406.459 1132.95 409.334 1133.74 411.629 1135.31C413.947 1136.85 415.754 1139.02 417.05 1141.82H417.595C418.936 1139.11 420.947 1136.97 423.629 1135.38C426.311 1133.76 429.527 1132.95 433.277 1132.95C437.959 1132.95 441.788 1134.42 444.766 1137.35C447.743 1140.26 449.232 1144.8 449.232 1150.95V1186H441.186V1150.95C441.186 1147.09 440.129 1144.33 438.016 1142.67C435.902 1141.01 433.413 1140.18 430.55 1140.18C426.868 1140.18 424.016 1141.3 421.993 1143.52C419.97 1145.73 418.959 1148.52 418.959 1151.91V1186H410.777V1150.14C410.777 1147.16 409.811 1144.76 407.879 1142.94C405.947 1141.1 403.459 1140.18 400.413 1140.18C398.322 1140.18 396.368 1140.74 394.55 1141.85C392.754 1142.97 391.3 1144.51 390.186 1146.49C389.095 1148.44 388.55 1150.7 388.55 1153.27V1186H380.504ZM463.942 1205.64V1133.64H471.714V1141.95H472.669C473.26 1141.05 474.078 1139.89 475.124 1138.48C476.192 1137.05 477.714 1135.77 479.692 1134.66C481.692 1133.52 484.396 1132.95 487.805 1132.95C492.214 1132.95 496.101 1134.06 499.464 1136.26C502.828 1138.47 505.453 1141.59 507.339 1145.64C509.226 1149.68 510.169 1154.45 510.169 1159.95C510.169 1165.5 509.226 1170.31 507.339 1174.38C505.453 1178.42 502.839 1181.56 499.499 1183.78C496.158 1185.99 492.305 1187.09 487.942 1187.09C484.578 1187.09 481.885 1186.53 479.862 1185.42C477.839 1184.28 476.283 1183 475.192 1181.57C474.101 1180.11 473.26 1178.91 472.669 1177.95H471.987V1205.64H463.942ZM471.851 1159.82C471.851 1163.77 472.43 1167.26 473.589 1170.28C474.749 1173.28 476.442 1175.64 478.669 1177.34C480.896 1179.02 483.624 1179.86 486.851 1179.86C490.214 1179.86 493.021 1178.98 495.271 1177.2C497.544 1175.41 499.249 1173 500.385 1169.98C501.544 1166.93 502.124 1163.55 502.124 1159.82C502.124 1156.14 501.555 1152.82 500.419 1149.86C499.305 1146.89 497.612 1144.53 495.339 1142.81C493.089 1141.06 490.26 1140.18 486.851 1140.18C483.578 1140.18 480.828 1141.01 478.601 1142.67C476.374 1144.31 474.692 1146.6 473.555 1149.56C472.419 1152.49 471.851 1155.91 471.851 1159.82ZM555.442 1164.59V1133.64H563.487V1186H555.442V1177.14H554.896C553.669 1179.8 551.76 1182.06 549.169 1183.92C546.578 1185.76 543.305 1186.68 539.351 1186.68C536.078 1186.68 533.169 1185.97 530.624 1184.53C528.078 1183.08 526.078 1180.9 524.624 1177.99C523.169 1175.06 522.442 1171.36 522.442 1166.91V1133.64H530.487V1166.36C530.487 1170.18 531.555 1173.23 533.692 1175.5C535.851 1177.77 538.601 1178.91 541.942 1178.91C543.942 1178.91 545.976 1178.4 548.044 1177.38C550.135 1176.35 551.885 1174.78 553.294 1172.67C554.726 1170.56 555.442 1167.86 555.442 1164.59ZM600.996 1133.64V1140.45H573.859V1133.64H600.996ZM581.768 1121.09H589.814V1171C589.814 1173.27 590.143 1174.98 590.803 1176.11C591.484 1177.23 592.348 1177.98 593.393 1178.36C594.462 1178.73 595.587 1178.91 596.768 1178.91C597.655 1178.91 598.382 1178.86 598.95 1178.77C599.518 1178.66 599.973 1178.57 600.314 1178.5L601.95 1185.73C601.405 1185.93 600.643 1186.14 599.666 1186.34C598.689 1186.57 597.45 1186.68 595.95 1186.68C593.678 1186.68 591.45 1186.19 589.268 1185.22C587.109 1184.24 585.314 1182.75 583.882 1180.75C582.473 1178.75 581.768 1176.23 581.768 1173.18V1121.09ZM634.49 1187.09C629.445 1187.09 625.092 1185.98 621.433 1183.75C617.797 1181.5 614.99 1178.36 613.013 1174.34C611.058 1170.3 610.081 1165.59 610.081 1160.23C610.081 1154.86 611.058 1150.14 613.013 1146.05C614.99 1141.93 617.74 1138.73 621.263 1136.43C624.808 1134.11 628.945 1132.95 633.672 1132.95C636.399 1132.95 639.092 1133.41 641.751 1134.32C644.411 1135.23 646.831 1136.7 649.013 1138.75C651.195 1140.77 652.933 1143.45 654.229 1146.8C655.524 1150.14 656.172 1154.25 656.172 1159.14V1162.55H615.808V1155.59H647.99C647.99 1152.64 647.399 1150 646.217 1147.68C645.058 1145.36 643.399 1143.53 641.24 1142.19C639.104 1140.85 636.581 1140.18 633.672 1140.18C630.467 1140.18 627.695 1140.98 625.354 1142.57C623.036 1144.14 621.251 1146.18 620.001 1148.7C618.751 1151.23 618.126 1153.93 618.126 1156.82V1161.45C618.126 1165.41 618.808 1168.76 620.172 1171.51C621.558 1174.24 623.479 1176.32 625.933 1177.75C628.388 1179.16 631.24 1179.86 634.49 1179.86C636.604 1179.86 638.513 1179.57 640.217 1178.98C641.945 1178.36 643.433 1177.45 644.683 1176.25C645.933 1175.02 646.899 1173.5 647.581 1171.68L655.354 1173.86C654.536 1176.5 653.161 1178.82 651.229 1180.82C649.297 1182.8 646.911 1184.34 644.07 1185.45C641.229 1186.55 638.036 1187.09 634.49 1187.09ZM668.411 1186V1133.64H676.183V1141.55H676.729C677.683 1138.95 679.411 1136.85 681.911 1135.24C684.411 1133.62 687.229 1132.82 690.365 1132.82C690.956 1132.82 691.695 1132.83 692.581 1132.85C693.467 1132.87 694.138 1132.91 694.592 1132.95V1141.14C694.32 1141.07 693.695 1140.97 692.717 1140.83C691.763 1140.67 690.751 1140.59 689.683 1140.59C687.138 1140.59 684.865 1141.12 682.865 1142.19C680.888 1143.24 679.32 1144.69 678.161 1146.56C677.024 1148.4 676.456 1150.5 676.456 1152.86V1186H668.411ZM752.402 1187.09C747.675 1187.09 743.527 1185.97 739.959 1183.72C736.413 1181.47 733.641 1178.32 731.641 1174.27C729.663 1170.23 728.675 1165.5 728.675 1160.09C728.675 1154.64 729.663 1149.87 731.641 1145.81C733.641 1141.74 736.413 1138.58 739.959 1136.33C743.527 1134.08 747.675 1132.95 752.402 1132.95C757.129 1132.95 761.266 1134.08 764.811 1136.33C768.379 1138.58 771.152 1141.74 773.129 1145.81C775.129 1149.87 776.129 1154.64 776.129 1160.09C776.129 1165.5 775.129 1170.23 773.129 1174.27C771.152 1178.32 768.379 1181.47 764.811 1183.72C761.266 1185.97 757.129 1187.09 752.402 1187.09ZM752.402 1179.86C755.993 1179.86 758.947 1178.94 761.266 1177.1C763.584 1175.26 765.3 1172.84 766.413 1169.84C767.527 1166.84 768.084 1163.59 768.084 1160.09C768.084 1156.59 767.527 1153.33 766.413 1150.31C765.3 1147.28 763.584 1144.84 761.266 1142.98C758.947 1141.11 755.993 1140.18 752.402 1140.18C748.811 1140.18 745.857 1141.11 743.538 1142.98C741.22 1144.84 739.504 1147.28 738.391 1150.31C737.277 1153.33 736.72 1156.59 736.72 1160.09C736.72 1163.59 737.277 1166.84 738.391 1169.84C739.504 1172.84 741.22 1175.26 743.538 1177.1C745.857 1178.94 748.811 1179.86 752.402 1179.86ZM788.411 1186V1133.64H796.183V1141.55H796.729C797.683 1138.95 799.411 1136.85 801.911 1135.24C804.411 1133.62 807.229 1132.82 810.365 1132.82C810.956 1132.82 811.695 1132.83 812.581 1132.85C813.467 1132.87 814.138 1132.91 814.592 1132.95V1141.14C814.32 1141.07 813.695 1140.97 812.717 1140.83C811.763 1140.67 810.751 1140.59 809.683 1140.59C807.138 1140.59 804.865 1141.12 802.865 1142.19C800.888 1143.24 799.32 1144.69 798.161 1146.56C797.024 1148.4 796.456 1150.5 796.456 1152.86V1186H788.411ZM425.355 1249.64V1256.45H398.219V1249.64H425.355ZM406.128 1237.09H414.173V1287C414.173 1289.27 414.503 1290.98 415.162 1292.11C415.844 1293.23 416.707 1293.98 417.753 1294.36C418.821 1294.73 419.946 1294.91 421.128 1294.91C422.014 1294.91 422.741 1294.86 423.31 1294.77C423.878 1294.66 424.332 1294.57 424.673 1294.5L426.31 1301.73C425.764 1301.93 425.003 1302.14 424.026 1302.34C423.048 1302.57 421.81 1302.68 420.31 1302.68C418.037 1302.68 415.81 1302.19 413.628 1301.22C411.469 1300.24 409.673 1298.75 408.241 1296.75C406.832 1294.75 406.128 1292.23 406.128 1289.18V1237.09ZM452.866 1303.23C449.548 1303.23 446.537 1302.6 443.832 1301.35C441.128 1300.08 438.98 1298.25 437.389 1295.86C435.798 1293.45 435.003 1290.55 435.003 1287.14C435.003 1284.14 435.594 1281.7 436.776 1279.84C437.957 1277.95 439.537 1276.48 441.514 1275.41C443.491 1274.34 445.673 1273.55 448.06 1273.02C450.469 1272.48 452.889 1272.05 455.321 1271.73C458.503 1271.32 461.082 1271.01 463.06 1270.81C465.06 1270.58 466.514 1270.2 467.423 1269.68C468.355 1269.16 468.821 1268.25 468.821 1266.95V1266.68C468.821 1263.32 467.901 1260.7 466.06 1258.84C464.241 1256.98 461.48 1256.05 457.776 1256.05C453.935 1256.05 450.923 1256.89 448.741 1258.57C446.56 1260.25 445.026 1262.05 444.139 1263.95L436.503 1261.23C437.866 1258.05 439.685 1255.57 441.957 1253.8C444.253 1252 446.753 1250.75 449.457 1250.05C452.185 1249.32 454.866 1248.95 457.503 1248.95C459.185 1248.95 461.116 1249.16 463.298 1249.57C465.503 1249.95 467.628 1250.76 469.673 1251.99C471.741 1253.22 473.457 1255.07 474.821 1257.55C476.185 1260.02 476.866 1263.34 476.866 1267.5V1302H468.821V1294.91H468.412C467.866 1296.05 466.957 1297.26 465.685 1298.56C464.412 1299.85 462.719 1300.95 460.605 1301.86C458.491 1302.77 455.912 1303.23 452.866 1303.23ZM454.094 1296C457.276 1296 459.957 1295.38 462.139 1294.12C464.344 1292.88 466.003 1291.26 467.116 1289.28C468.253 1287.31 468.821 1285.23 468.821 1283.05V1275.68C468.48 1276.09 467.73 1276.47 466.571 1276.81C465.435 1277.12 464.116 1277.41 462.616 1277.66C461.139 1277.89 459.696 1278.09 458.287 1278.27C456.901 1278.43 455.776 1278.57 454.912 1278.68C452.821 1278.95 450.866 1279.4 449.048 1280.01C447.253 1280.6 445.798 1281.5 444.685 1282.7C443.594 1283.89 443.048 1285.5 443.048 1287.55C443.048 1290.34 444.082 1292.45 446.151 1293.89C448.241 1295.3 450.889 1296 454.094 1296ZM492.642 1302V1232.18H500.688V1257.95H501.369C501.96 1257.05 502.778 1255.89 503.824 1254.48C504.892 1253.05 506.415 1251.77 508.392 1250.66C510.392 1249.52 513.097 1248.95 516.506 1248.95C520.915 1248.95 524.801 1250.06 528.165 1252.26C531.528 1254.47 534.153 1257.59 536.04 1261.64C537.926 1265.68 538.869 1270.45 538.869 1275.95C538.869 1281.5 537.926 1286.31 536.04 1290.38C534.153 1294.42 531.54 1297.56 528.199 1299.78C524.858 1301.99 521.006 1303.09 516.642 1303.09C513.278 1303.09 510.585 1302.53 508.562 1301.42C506.54 1300.28 504.983 1299 503.892 1297.57C502.801 1296.11 501.96 1294.91 501.369 1293.95H500.415V1302H492.642ZM500.551 1275.82C500.551 1279.77 501.131 1283.26 502.29 1286.28C503.449 1289.28 505.142 1291.64 507.369 1293.34C509.597 1295.02 512.324 1295.86 515.551 1295.86C518.915 1295.86 521.722 1294.98 523.972 1293.2C526.244 1291.41 527.949 1289 529.085 1285.98C530.244 1282.93 530.824 1279.55 530.824 1275.82C530.824 1272.14 530.256 1268.82 529.119 1265.86C528.006 1262.89 526.313 1260.53 524.04 1258.81C521.79 1257.06 518.96 1256.18 515.551 1256.18C512.278 1256.18 509.528 1257.01 507.301 1258.67C505.074 1260.31 503.392 1262.6 502.256 1265.56C501.119 1268.49 500.551 1271.91 500.551 1275.82ZM559.222 1232.18V1302H551.176V1232.18H559.222ZM595.912 1303.09C590.866 1303.09 586.514 1301.98 582.855 1299.75C579.219 1297.5 576.412 1294.36 574.435 1290.34C572.48 1286.3 571.503 1281.59 571.503 1276.23C571.503 1270.86 572.48 1266.14 574.435 1262.05C576.412 1257.93 579.162 1254.73 582.685 1252.43C586.23 1250.11 590.366 1248.95 595.094 1248.95C597.821 1248.95 600.514 1249.41 603.173 1250.32C605.832 1251.23 608.253 1252.7 610.435 1254.75C612.616 1256.77 614.355 1259.45 615.651 1262.8C616.946 1266.14 617.594 1270.25 617.594 1275.14V1278.55H577.23V1271.59H609.412C609.412 1268.64 608.821 1266 607.639 1263.68C606.48 1261.36 604.821 1259.53 602.662 1258.19C600.526 1256.85 598.003 1256.18 595.094 1256.18C591.889 1256.18 589.116 1256.98 586.776 1258.57C584.457 1260.14 582.673 1262.18 581.423 1264.7C580.173 1267.23 579.548 1269.93 579.548 1272.82V1277.45C579.548 1281.41 580.23 1284.76 581.594 1287.51C582.98 1290.24 584.901 1292.32 587.355 1293.75C589.81 1295.16 592.662 1295.86 595.912 1295.86C598.026 1295.86 599.935 1295.57 601.639 1294.98C603.366 1294.36 604.855 1293.45 606.105 1292.25C607.355 1291.02 608.321 1289.5 609.003 1287.68L616.776 1289.86C615.957 1292.5 614.582 1294.82 612.651 1296.82C610.719 1298.8 608.332 1300.34 605.491 1301.45C602.651 1302.55 599.457 1303.09 595.912 1303.09ZM652.605 1249.64V1256.45H625.469V1249.64H652.605ZM633.378 1237.09H641.423V1287C641.423 1289.27 641.753 1290.98 642.412 1292.11C643.094 1293.23 643.957 1293.98 645.003 1294.36C646.071 1294.73 647.196 1294.91 648.378 1294.91C649.264 1294.91 649.991 1294.86 650.56 1294.77C651.128 1294.66 651.582 1294.57 651.923 1294.5L653.56 1301.73C653.014 1301.93 652.253 1302.14 651.276 1302.34C650.298 1302.57 649.06 1302.68 647.56 1302.68C645.287 1302.68 643.06 1302.19 640.878 1301.22C638.719 1300.24 636.923 1298.75 635.491 1296.75C634.082 1294.75 633.378 1292.23 633.378 1289.18V1237.09ZM670.571 1302.55C668.889 1302.55 667.446 1301.94 666.241 1300.74C665.037 1299.53 664.435 1298.09 664.435 1296.41C664.435 1294.73 665.037 1293.28 666.241 1292.08C667.446 1290.87 668.889 1290.27 670.571 1290.27C672.253 1290.27 673.696 1290.87 674.901 1292.08C676.105 1293.28 676.707 1294.73 676.707 1296.41C676.707 1297.52 676.423 1298.55 675.855 1299.48C675.31 1300.41 674.571 1301.16 673.639 1301.73C672.73 1302.27 671.707 1302.55 670.571 1302.55Z" fill="white"/>
</svg>
